<mxfile host="app.diagrams.net" modified="2023-11-26T07:36:57.162Z" agent="Mozilla/5.0 (Windows NT 10.0; Win64; x64) AppleWebKit/537.36 (KHTML, like Gecko) Chrome/118.0.0.0 Safari/537.36 OPR/104.0.0.0 (Edition Yx GX)" etag="EJ5CxOkBVjao9-O_Awqt" version="22.1.4" type="github">
  <diagram id="C5RBs43oDa-KdzZeNtuy" name="Page-1">
    <mxGraphModel dx="1009" dy="581" grid="1" gridSize="10" guides="1" tooltips="1" connect="1" arrows="1" fold="1" page="1" pageScale="1" pageWidth="827" pageHeight="1169" math="0" shadow="1">
      <root>
        <mxCell id="WIyWlLk6GJQsqaUBKTNV-0" />
        <mxCell id="WIyWlLk6GJQsqaUBKTNV-1" parent="WIyWlLk6GJQsqaUBKTNV-0" />
        <mxCell id="IcwxSNx7jRmSdAVXut2c-3" value="" style="endArrow=classic;dashed=1;html=1;dashPattern=1 3;strokeWidth=2;rounded=0;entryX=0.5;entryY=1;entryDx=0;entryDy=0;exitX=0.5;exitY=0;exitDx=0;exitDy=0;endFill=1;startArrow=none;startFill=0;entryPerimeter=0;" edge="1" parent="WIyWlLk6GJQsqaUBKTNV-1" source="IcwxSNx7jRmSdAVXut2c-5" target="IcwxSNx7jRmSdAVXut2c-9">
          <mxGeometry width="50" height="50" relative="1" as="geometry">
            <mxPoint x="410" y="270" as="sourcePoint" />
            <mxPoint x="480" y="160" as="targetPoint" />
          </mxGeometry>
        </mxCell>
        <mxCell id="IcwxSNx7jRmSdAVXut2c-4" value="" style="endArrow=classic;html=1;rounded=0;entryX=0;entryY=0;entryDx=20;entryDy=80;exitX=0.5;exitY=0;exitDx=0;exitDy=0;startArrow=none;startFill=0;entryPerimeter=0;" edge="1" parent="WIyWlLk6GJQsqaUBKTNV-1" source="IcwxSNx7jRmSdAVXut2c-5" target="IcwxSNx7jRmSdAVXut2c-8">
          <mxGeometry width="50" height="50" relative="1" as="geometry">
            <mxPoint x="410" y="270" as="sourcePoint" />
            <mxPoint x="630" y="185" as="targetPoint" />
          </mxGeometry>
        </mxCell>
        <mxCell id="IcwxSNx7jRmSdAVXut2c-5" value="&lt;font style=&quot;font-size: 17px;&quot;&gt;Proxy&lt;/font&gt;" style="ellipse;whiteSpace=wrap;html=1;" vertex="1" parent="WIyWlLk6GJQsqaUBKTNV-1">
          <mxGeometry x="530" y="270" width="120" height="60" as="geometry" />
        </mxCell>
        <mxCell id="IcwxSNx7jRmSdAVXut2c-8" value="&lt;font style=&quot;font-size: 16px;&quot;&gt;Redis Cache&lt;/font&gt;" style="shape=cube;whiteSpace=wrap;html=1;boundedLbl=1;backgroundOutline=1;darkOpacity=0.05;darkOpacity2=0.1;" vertex="1" parent="WIyWlLk6GJQsqaUBKTNV-1">
          <mxGeometry x="610" y="80" width="120" height="80" as="geometry" />
        </mxCell>
        <mxCell id="IcwxSNx7jRmSdAVXut2c-9" value="&lt;font style=&quot;font-size: 16px;&quot;&gt;Postgres&lt;/font&gt;" style="shape=cylinder3;whiteSpace=wrap;html=1;boundedLbl=1;backgroundOutline=1;size=15;" vertex="1" parent="WIyWlLk6GJQsqaUBKTNV-1">
          <mxGeometry x="445" y="50" width="70" height="100" as="geometry" />
        </mxCell>
        <mxCell id="IcwxSNx7jRmSdAVXut2c-11" value="&lt;font style=&quot;font-size: 18px;&quot;&gt;Test&lt;br&gt;System&lt;/font&gt;" style="shape=note;whiteSpace=wrap;html=1;backgroundOutline=1;darkOpacity=0.05;" vertex="1" parent="WIyWlLk6GJQsqaUBKTNV-1">
          <mxGeometry x="290" y="200" width="80" height="100" as="geometry" />
        </mxCell>
        <mxCell id="IcwxSNx7jRmSdAVXut2c-12" value="" style="endArrow=classic;html=1;rounded=0;entryX=0;entryY=0;entryDx=80;entryDy=65;entryPerimeter=0;exitX=0;exitY=0.5;exitDx=0;exitDy=0;" edge="1" parent="WIyWlLk6GJQsqaUBKTNV-1" source="IcwxSNx7jRmSdAVXut2c-5" target="IcwxSNx7jRmSdAVXut2c-11">
          <mxGeometry width="50" height="50" relative="1" as="geometry">
            <mxPoint x="390" y="400" as="sourcePoint" />
            <mxPoint x="440" y="350" as="targetPoint" />
          </mxGeometry>
        </mxCell>
        <mxCell id="IcwxSNx7jRmSdAVXut2c-14" value="&lt;br&gt;&lt;br&gt;&lt;br&gt;&lt;font style=&quot;font-size: 16px;&quot;&gt;Client&lt;br&gt;Other Service&lt;/font&gt;" style="shape=actor;whiteSpace=wrap;html=1;" vertex="1" parent="WIyWlLk6GJQsqaUBKTNV-1">
          <mxGeometry x="490" y="443.39" width="70" height="100" as="geometry" />
        </mxCell>
        <mxCell id="IcwxSNx7jRmSdAVXut2c-15" value="" style="endArrow=classic;html=1;rounded=0;exitX=0.5;exitY=0;exitDx=0;exitDy=0;entryX=0;entryY=1;entryDx=0;entryDy=0;" edge="1" parent="WIyWlLk6GJQsqaUBKTNV-1" source="IcwxSNx7jRmSdAVXut2c-14" target="IcwxSNx7jRmSdAVXut2c-5">
          <mxGeometry width="50" height="50" relative="1" as="geometry">
            <mxPoint x="325" y="393.39" as="sourcePoint" />
            <mxPoint x="527.573593128807" y="324.60320343559647" as="targetPoint" />
          </mxGeometry>
        </mxCell>
        <mxCell id="IcwxSNx7jRmSdAVXut2c-17" value="" style="endArrow=classic;html=1;rounded=0;exitX=0;exitY=0;exitDx=70;exitDy=80;exitPerimeter=0;entryX=1;entryY=0;entryDx=0;entryDy=0;" edge="1" parent="WIyWlLk6GJQsqaUBKTNV-1" source="IcwxSNx7jRmSdAVXut2c-8" target="IcwxSNx7jRmSdAVXut2c-5">
          <mxGeometry width="50" height="50" relative="1" as="geometry">
            <mxPoint x="390" y="290" as="sourcePoint" />
            <mxPoint x="440" y="240" as="targetPoint" />
          </mxGeometry>
        </mxCell>
        <mxCell id="IcwxSNx7jRmSdAVXut2c-18" value="&lt;font style=&quot;font-size: 18px;&quot;&gt;Cache&lt;/font&gt;" style="text;html=1;strokeColor=none;fillColor=none;align=center;verticalAlign=middle;whiteSpace=wrap;rounded=0;" vertex="1" parent="WIyWlLk6GJQsqaUBKTNV-1">
          <mxGeometry x="690" y="180" width="60" height="30" as="geometry" />
        </mxCell>
        <mxCell id="IcwxSNx7jRmSdAVXut2c-19" value="&lt;font style=&quot;font-size: 18px;&quot;&gt;Average 0.5s Access time&lt;/font&gt;" style="text;html=1;strokeColor=none;fillColor=none;align=center;verticalAlign=middle;whiteSpace=wrap;rounded=0;" vertex="1" parent="WIyWlLk6GJQsqaUBKTNV-1">
          <mxGeometry x="660" y="230" width="140" height="30" as="geometry" />
        </mxCell>
        <mxCell id="IcwxSNx7jRmSdAVXut2c-20" value="&lt;font style=&quot;font-size: 18px;&quot;&gt;Simulated load of 5-10s&lt;/font&gt;" style="text;html=1;strokeColor=none;fillColor=none;align=center;verticalAlign=middle;whiteSpace=wrap;rounded=0;" vertex="1" parent="WIyWlLk6GJQsqaUBKTNV-1">
          <mxGeometry x="360" y="320" width="140" height="30" as="geometry" />
        </mxCell>
        <mxCell id="IcwxSNx7jRmSdAVXut2c-21" value="&lt;font style=&quot;font-size: 18px;&quot;&gt;Test Results&lt;/font&gt;" style="text;html=1;strokeColor=none;fillColor=none;align=center;verticalAlign=middle;whiteSpace=wrap;rounded=0;" vertex="1" parent="WIyWlLk6GJQsqaUBKTNV-1">
          <mxGeometry x="430" y="240" width="60" height="30" as="geometry" />
        </mxCell>
        <mxCell id="IcwxSNx7jRmSdAVXut2c-22" value="&lt;font style=&quot;font-size: 18px;&quot;&gt;Results&lt;/font&gt;" style="text;html=1;strokeColor=none;fillColor=none;align=center;verticalAlign=middle;whiteSpace=wrap;rounded=0;" vertex="1" parent="WIyWlLk6GJQsqaUBKTNV-1">
          <mxGeometry x="548" y="167" width="60" height="30" as="geometry" />
        </mxCell>
        <mxCell id="IcwxSNx7jRmSdAVXut2c-23" value="&lt;font style=&quot;font-size: 18px;&quot;&gt;Https&lt;br&gt;(XML/JSON)&lt;br&gt;&lt;/font&gt;" style="text;html=1;strokeColor=none;fillColor=none;align=center;verticalAlign=middle;whiteSpace=wrap;rounded=0;" vertex="1" parent="WIyWlLk6GJQsqaUBKTNV-1">
          <mxGeometry x="390" y="400" width="140" height="30" as="geometry" />
        </mxCell>
        <mxCell id="IcwxSNx7jRmSdAVXut2c-24" value="&lt;br&gt;&lt;br&gt;&lt;br&gt;&lt;font style=&quot;font-size: 16px;&quot;&gt;Client&lt;br&gt;Other Service&lt;/font&gt;" style="shape=actor;whiteSpace=wrap;html=1;" vertex="1" parent="WIyWlLk6GJQsqaUBKTNV-1">
          <mxGeometry x="600" y="469" width="70" height="100" as="geometry" />
        </mxCell>
        <mxCell id="IcwxSNx7jRmSdAVXut2c-25" value="" style="endArrow=classic;html=1;rounded=0;exitX=0.5;exitY=0;exitDx=0;exitDy=0;entryX=0.5;entryY=1;entryDx=0;entryDy=0;" edge="1" parent="WIyWlLk6GJQsqaUBKTNV-1" target="IcwxSNx7jRmSdAVXut2c-5">
          <mxGeometry width="50" height="50" relative="1" as="geometry">
            <mxPoint x="635" y="469" as="sourcePoint" />
            <mxPoint x="590" y="330" as="targetPoint" />
          </mxGeometry>
        </mxCell>
        <mxCell id="IcwxSNx7jRmSdAVXut2c-26" value="&lt;font style=&quot;font-size: 18px;&quot;&gt;ISO8583&lt;/font&gt;" style="text;html=1;strokeColor=none;fillColor=none;align=center;verticalAlign=middle;whiteSpace=wrap;rounded=0;" vertex="1" parent="WIyWlLk6GJQsqaUBKTNV-1">
          <mxGeometry x="600" y="410" width="140" height="30" as="geometry" />
        </mxCell>
        <mxCell id="IcwxSNx7jRmSdAVXut2c-29" value="&lt;br&gt;&lt;br&gt;&lt;br&gt;&lt;font style=&quot;font-size: 16px;&quot;&gt;Client&lt;br&gt;Other Service&lt;/font&gt;" style="shape=actor;whiteSpace=wrap;html=1;" vertex="1" parent="WIyWlLk6GJQsqaUBKTNV-1">
          <mxGeometry x="770" y="419" width="70" height="100" as="geometry" />
        </mxCell>
        <mxCell id="IcwxSNx7jRmSdAVXut2c-30" value="" style="endArrow=classic;html=1;rounded=0;exitX=0.5;exitY=0;exitDx=0;exitDy=0;entryX=1;entryY=0.5;entryDx=0;entryDy=0;" edge="1" parent="WIyWlLk6GJQsqaUBKTNV-1" target="IcwxSNx7jRmSdAVXut2c-5">
          <mxGeometry width="50" height="50" relative="1" as="geometry">
            <mxPoint x="805" y="419" as="sourcePoint" />
            <mxPoint x="760" y="280" as="targetPoint" />
          </mxGeometry>
        </mxCell>
        <mxCell id="IcwxSNx7jRmSdAVXut2c-31" value="&lt;font style=&quot;font-size: 18px;&quot;&gt;Webhooks&lt;/font&gt;" style="text;html=1;strokeColor=none;fillColor=none;align=center;verticalAlign=middle;whiteSpace=wrap;rounded=0;" vertex="1" parent="WIyWlLk6GJQsqaUBKTNV-1">
          <mxGeometry x="730" y="340" width="140" height="30" as="geometry" />
        </mxCell>
        <mxCell id="IcwxSNx7jRmSdAVXut2c-32" style="edgeStyle=orthogonalEdgeStyle;rounded=0;orthogonalLoop=1;jettySize=auto;html=1;exitX=0.5;exitY=1;exitDx=0;exitDy=0;" edge="1" parent="WIyWlLk6GJQsqaUBKTNV-1" source="IcwxSNx7jRmSdAVXut2c-23" target="IcwxSNx7jRmSdAVXut2c-23">
          <mxGeometry relative="1" as="geometry" />
        </mxCell>
      </root>
    </mxGraphModel>
  </diagram>
</mxfile>
